<svg xmlns="http://www.w3.org/2000/svg" width="109" height="28" viewBox="0 0 109 28" fill="none"><g clip-path="url(#clip0_1121_972)"><path d="M15.8211 28H10.011C9.38365 28 8.87902 27.4934 8.87902 26.8636V15.8553C8.87902 15.6773 8.91993 15.4856 9.0154 15.3213L11.5931 10.4196L7.13327 2.24548H3.05532C3.05532 2.24548 3.04168 2.24548 3.05532 2.25917L6.81958 8.92714C7.13327 9.48851 6.91505 10.2279 6.31495 10.5017C5.78305 10.7482 5.14203 10.5017 4.85562 9.98142L0.150287 1.67042C-0.122485 1.20489 -0.0270149 0.602445 0.42306 0.246455C0.62764 0.0684597 0.886774 0 1.15955 0H7.78793C8.19708 0 8.57897 0.219071 8.76991 0.588753L12.8342 8.03716H12.8479L16.7212 0.698288C16.9122 0.328606 17.2941 0.0958435 17.7169 0.0958435H24.6589C24.9317 0.0958435 25.1908 0.177995 25.409 0.342298C25.8591 0.71198 25.9273 1.32812 25.6545 1.79364L16.8031 16.444C16.5985 16.7863 16.2302 16.9917 15.8211 16.978C15.4256 16.978 15.0573 16.7452 14.8664 16.4029L12.8888 12.7883H12.8751L11.1158 16.1154V25.7271H14.6891V22.4548C14.6891 21.866 15.1119 21.332 15.6983 21.2773C16.353 21.2225 16.9122 21.7428 16.9122 22.3863V26.8362C16.9122 27.466 16.4075 27.9726 15.7802 27.9726L15.8211 28ZM14.1299 10.4059L15.8893 13.6235L22.7222 2.32763H18.3851L14.1299 10.3922V10.4059Z" fill="white"></path><path d="M39.4705 8.20142H38.7613C38.5294 8.20142 38.3385 8.35203 38.2567 8.5711C35.9245 15.554 34.9288 18.5799 34.4378 20.1545H34.4106C34.0014 18.7579 32.8558 15.4718 30.469 8.5711C30.4008 8.35203 30.1962 8.21511 29.9644 8.21511H29.1461C28.7778 8.21511 28.5187 8.58479 28.6551 8.92709L33.4286 22.1124C33.4695 22.2356 33.4695 22.3589 33.4286 22.4684C33.1558 23.2215 32.8694 23.9334 32.0374 26.22C31.9147 26.5623 32.1602 26.932 32.5148 26.932H33.2922C33.5241 26.9457 33.7286 26.8088 33.7968 26.5897C34.7379 23.8102 34.9834 23.1804 35.2425 22.441L39.9615 8.92709C40.0842 8.58479 39.8251 8.2288 39.4569 8.2288L39.4705 8.20142Z" fill="white"></path><path d="M51.9635 12.2131C51.9635 9.20092 50.1905 7.8728 47.0263 7.8728C43.7258 7.8728 42.5256 9.5706 42.1574 11.1041C42.0755 11.4464 42.321 11.7613 42.6756 11.7613H43.4121C43.644 11.7613 43.8485 11.6107 43.9167 11.3779C44.2031 10.3921 44.7623 9.39261 46.9854 9.39261C49.8086 9.39261 50.1905 11.0356 50.1905 12.3227V13.062C50.1905 13.3496 49.9587 13.596 49.6586 13.596H47.7492C43.7258 13.596 41.4072 14.9652 41.4072 17.9501C41.4072 19.9902 42.7575 22.044 45.908 22.044C48.0492 22.044 49.2085 21.2224 49.8223 20.4009C49.9587 20.2229 50.2314 20.3051 50.2451 20.5241C50.2723 20.8254 50.2996 21.0855 50.3269 21.2909C50.3678 21.551 50.586 21.729 50.8452 21.729H51.5407C51.8544 21.729 52.0999 21.4552 52.059 21.1403C52.0044 20.5926 51.9499 19.8122 51.9499 18.9907V12.2405L51.9635 12.2131ZM50.2178 15.4171C50.2178 18.1281 49.7268 20.5241 46.1535 20.5241C44.3668 20.5241 43.2757 19.4288 43.2757 17.8542C43.2757 15.7183 44.9396 14.9515 47.7901 14.9515H50.2178V15.4171Z" fill="white"></path><path d="M57.4598 1.95801H56.737C56.4432 1.95801 56.2051 2.19708 56.2051 2.49199V21.1815C56.2051 21.4764 56.4432 21.7155 56.737 21.7155H57.4598C57.7536 21.7155 57.9917 21.4764 57.9917 21.1815V2.49199C57.9917 2.19708 57.7536 1.95801 57.4598 1.95801Z" fill="white"></path><path d="M72.094 8.20142H71.3575C71.0711 8.20142 70.8256 8.43418 70.8256 8.7354V15.198C70.8256 18.84 69.7754 20.3872 67.0068 20.3872C64.5382 20.3872 63.9517 18.5936 63.9517 16.7178V8.7354C63.9517 8.44787 63.7199 8.20142 63.4198 8.20142H62.7106C62.4242 8.20142 62.1787 8.43418 62.1787 8.7354V17.1286C62.1787 21.1129 64.5246 22.044 66.6113 22.044C68.698 22.044 69.8845 21.2909 70.5665 20.0586C70.6347 19.9491 70.7983 19.9902 70.7983 20.1134L70.8665 21.2224C70.8802 21.4963 71.112 21.7154 71.3984 21.7154H72.1213C72.4077 21.7154 72.6532 21.4826 72.6532 21.1814C72.6532 20.3051 72.6259 18.8264 72.6259 17.7721V8.7354C72.6259 8.44787 72.3941 8.20142 72.094 8.20142Z" fill="white"></path><path d="M78.9275 4.08034H78.191C77.9046 4.08034 77.6591 4.3131 77.6591 4.61433V7.66763C77.6591 7.95516 77.4273 8.20161 77.1272 8.20161H75.7634C75.4769 8.20161 75.2314 8.43438 75.2314 8.7356V9.22851C75.2314 9.51604 75.4633 9.76249 75.7634 9.76249H77.1272C77.4136 9.76249 77.6591 9.99526 77.6591 10.2965V18.7444C77.6591 20.9488 78.6138 21.9072 80.496 21.9072C80.946 21.9072 81.4643 21.8799 81.9144 21.784C82.1462 21.7292 82.3235 21.5102 82.3235 21.2637V20.8393C82.3235 20.5244 82.0508 20.2779 81.7371 20.319C81.4779 20.3464 81.2324 20.3464 81.0279 20.3464C79.7731 20.3464 79.4458 19.5659 79.4458 18.142V10.2828C79.4458 9.99526 79.6776 9.7488 79.9777 9.7488H82.0235C82.3099 9.7488 82.5554 9.51604 82.5554 9.21482V8.72191C82.5554 8.43438 82.3235 8.18792 82.0235 8.18792H79.9777C79.6913 8.18792 79.4458 7.95516 79.4458 7.65394V4.60064C79.4458 4.3131 79.2139 4.06665 78.9139 4.06665L78.9275 4.08034Z" fill="white"></path><path d="M89.9611 7.87282C85.9513 7.87282 84.001 11.1452 84.001 15.0748C84.001 18.5251 85.6512 22.0303 89.811 22.0303C92.8115 22.0303 94.2982 20.4283 94.9937 18.8674C95.1574 18.5115 94.8983 18.1144 94.5164 18.1144H93.8072C93.6026 18.1144 93.4253 18.2239 93.3434 18.4019C92.8661 19.3877 92.0205 20.442 89.8929 20.442C87.6016 20.442 86.0604 18.621 85.8695 15.8005C85.8422 15.4855 86.0877 15.2254 86.4014 15.2254H95.0619C95.3483 15.2254 95.5802 14.9926 95.5938 14.7051C95.5938 14.5134 95.5938 14.308 95.5938 14.1027C95.5938 11.4053 94.23 7.85913 89.9883 7.85913L89.9611 7.87282ZM86.4968 13.8425C86.1695 13.8425 85.924 13.5413 85.9786 13.2264C86.3605 10.9535 87.5334 9.42001 89.9201 9.42001C92.3069 9.42001 93.4935 11.0767 93.698 13.2674C93.7253 13.5824 93.4798 13.8562 93.1661 13.8562H86.4968V13.8425Z" fill="white"></path><path d="M103.749 20.4559C101.144 20.4559 99.7259 18.1009 99.7259 14.9518C99.7259 11.8026 101.226 9.46129 103.858 9.46129C105.822 9.46129 106.777 10.5977 107.214 11.9395C107.282 12.1586 107.486 12.2955 107.705 12.2955H108.468C108.823 12.2955 109.068 11.9669 108.973 11.6246C108.536 9.89943 107.091 7.88672 103.886 7.88672C99.9032 7.88672 97.8574 11.2686 97.8574 15.0339C97.8574 19.4564 100.203 22.0442 103.722 22.0442C106.6 22.0442 108.155 20.4148 108.891 18.3747C109.014 18.0324 108.755 17.6764 108.386 17.6764H107.664C107.445 17.6764 107.254 17.8134 107.173 18.0187C106.532 19.6344 105.454 20.4696 103.736 20.4696L103.749 20.4559Z" fill="white"></path></g><defs><clipPath id="clip0_1121_972"><rect width="109" height="28" fill="white"></rect></clipPath></defs></svg>